<svg width="1492" height="717" viewBox="0 0 1492 717" fill="none" xmlns="http://www.w3.org/2000/svg">
<path opacity="0.5" d="M494.548 73.1794L264.96 26.8229C192.916 12.2765 121.889 55.917 102.31 126.759L19.5359 426.253C7.30047 470.523 17.558 517.979 46.985 553.244L128.928 651.444C162.519 691.7 215.789 709.813 266.957 698.376L493.181 647.814C503.206 645.574 513.446 644.443 523.718 644.443H956.002C966.154 644.443 976.277 645.548 986.19 647.737L1218.79 699.102C1268.77 710.137 1320.78 693.026 1354.44 654.478L1444.12 551.771C1474.13 517.4 1485.51 470.559 1474.61 426.25L1401.65 129.62C1383.9 57.4617 1312.87 11.741 1239.84 25.468L984.094 73.5393C975.567 75.1422 966.909 75.9488 958.232 75.9488H522.256C512.951 75.9488 503.669 75.0211 494.548 73.1794Z" fill="url(#paint0_linear_0_9)" stroke="url(#paint1_linear_0_9)" stroke-width="5"/>
<g opacity="0.5" filter="url(#filter0_b_0_9)">
<path d="M494.548 72.1794L264.96 25.8229C192.916 11.2765 121.889 54.917 102.31 125.759L19.5359 425.253C7.30048 469.523 17.558 516.979 46.985 552.244L128.928 650.444C162.519 690.7 215.789 708.813 266.957 697.376L493.181 646.814C503.206 644.574 513.446 643.443 523.718 643.443H956.002C966.154 643.443 976.277 644.548 986.19 646.737L1218.79 698.102C1268.77 709.137 1320.78 692.026 1354.44 653.478L1444.12 550.771C1474.13 516.4 1485.51 469.559 1474.61 425.25L1401.65 128.62C1383.9 56.4617 1312.87 10.741 1239.84 24.468L984.094 72.5393C975.567 74.1422 966.909 74.9488 958.232 74.9488H522.256C512.951 74.9488 503.669 74.0211 494.548 72.1794Z" fill="url(#paint2_linear_0_9)" fill-opacity="0.7"/>
<path d="M494.548 72.1794L264.96 25.8229C192.916 11.2765 121.889 54.917 102.31 125.759L19.5359 425.253C7.30048 469.523 17.558 516.979 46.985 552.244L128.928 650.444C162.519 690.7 215.789 708.813 266.957 697.376L493.181 646.814C503.206 644.574 513.446 643.443 523.718 643.443H956.002C966.154 643.443 976.277 644.548 986.19 646.737L1218.79 698.102C1268.77 709.137 1320.78 692.026 1354.44 653.478L1444.12 550.771C1474.13 516.4 1485.51 469.559 1474.61 425.25L1401.65 128.62C1383.9 56.4617 1312.87 10.741 1239.84 24.468L984.094 72.5393C975.567 74.1422 966.909 74.9488 958.232 74.9488H522.256C512.951 74.9488 503.669 74.0211 494.548 72.1794Z" stroke="url(#paint3_linear_0_9)" stroke-width="5"/>
</g>
<defs>
<filter id="filter0_b_0_9" x="-988.025" y="-980.463" width="3469.19" height="2684.36" filterUnits="userSpaceOnUse" color-interpolation-filters="sRGB">
<feFlood flood-opacity="0" result="BackgroundImageFix"/>
<feGaussianBlur in="BackgroundImageFix" stdDeviation="500"/>
<feComposite in2="SourceAlpha" operator="in" result="effect1_backgroundBlur_0_9"/>
<feBlend mode="normal" in="SourceGraphic" in2="effect1_backgroundBlur_0_9" result="shape"/>
</filter>
<linearGradient id="paint0_linear_0_9" x1="38.5" y1="402.154" x2="734.212" y2="526.969" gradientUnits="userSpaceOnUse">
<stop stop-color="#3E3D3D"/>
<stop offset="1" stop-color="#3E3D3D" stop-opacity="0"/>
</linearGradient>
<linearGradient id="paint1_linear_0_9" x1="-356" y1="908.46" x2="698.209" y2="374.396" gradientUnits="userSpaceOnUse">
<stop offset="0.353463" stop-color="#B8FF01"/>
<stop offset="1" stop-color="white" stop-opacity="0"/>
</linearGradient>
<linearGradient id="paint2_linear_0_9" x1="1453" y1="304.513" x2="631.497" y2="302.045" gradientUnits="userSpaceOnUse">
<stop stop-color="#3E3D3D"/>
<stop offset="1" stop-color="#3E3D3D" stop-opacity="0"/>
</linearGradient>
<linearGradient id="paint3_linear_0_9" x1="1492" y1="635.161" x2="1210.52" y2="313.186" gradientUnits="userSpaceOnUse">
<stop offset="0.353463" stop-color="#B8FF01"/>
<stop offset="0.841638" stop-color="white" stop-opacity="0"/>
</linearGradient>
</defs>
</svg>
