<svg width="28" height="28" viewBox="0 0 28 28" fill="none" xmlns="http://www.w3.org/2000/svg">
<path d="M27.2693 8.22501H24.6462C24.5266 8.22761 24.4083 8.26828 24.3043 8.34184L23.1223 3.81653C22.745 1.24362 21.3183 0 19.5666 0H8.45785C6.44585 0 5.22506 1.66681 4.90151 3.81393L3.71607 8.35396C3.60617 8.27063 3.48099 8.22556 3.35309 8.22328H0.730707C0.634871 8.22305 0.539938 8.24687 0.451337 8.29338C0.362736 8.3399 0.282203 8.40818 0.214342 8.49434C0.14648 8.5805 0.0926213 8.68284 0.0558432 8.79552C0.0190651 8.9082 8.91499e-05 9.029 0 9.15102V9.95586C0 10.4673 0.326949 10.8845 0.730707 10.8845L1.72311 11.1008C1.38984 11.9393 1.22121 12.8682 1.23167 13.8079L0.863933 19.1476C0.863933 19.3016 0.87277 19.4591 0.887724 19.6183C0.873025 19.7183 0.865066 19.8196 0.863933 19.9212V26.3453C0.863933 27.2601 1.44714 28 2.16697 28H4.15517C4.32614 28.0005 4.49549 27.958 4.65356 27.8751C4.81163 27.7921 4.95531 27.6704 5.07639 27.5167C5.19747 27.363 5.29358 27.1804 5.35921 26.9795C5.42484 26.7785 5.45871 26.563 5.45889 26.3453V24.2821H22.5649V26.3453C22.5649 27.2601 23.1481 28 23.8679 28H25.8575C26.0284 28.0003 26.1977 27.9578 26.3557 27.8748C26.5137 27.7918 26.6573 27.67 26.7783 27.5164C26.8993 27.3627 26.9953 27.1802 27.0609 26.9793C27.1265 26.7783 27.1604 26.5629 27.1605 26.3453V19.9204C27.1605 19.8191 27.1517 19.7179 27.1361 19.6183C27.151 19.4591 27.1605 19.3016 27.1605 19.1467L26.7921 13.807C26.7921 12.7676 26.6127 11.8771 26.2986 11.0965L27.2686 10.8871C27.3646 10.8874 27.4596 10.8636 27.5484 10.8171C27.6371 10.7706 27.7177 10.7023 27.7857 10.616C27.8536 10.5297 27.9075 10.4273 27.9443 10.3144C27.9811 10.2016 28 10.0806 28 9.95846V9.15361C27.9991 8.90723 27.9217 8.67131 27.7847 8.49734C27.6476 8.32336 27.4621 8.22546 27.2686 8.22501H27.2693ZM5.777 7.27564L6.64501 4.34011L6.65589 4.27088C6.74221 3.67893 6.93458 3.57161 7.22006 3.11467H20.8132C21.1015 3.58546 21.2809 3.70489 21.3591 4.26655L22.242 7.27823L22.5656 8.91389C22.4922 10.1108 21.3591 11.0558 20.419 11.0558H7.60003C6.65793 11.0558 5.52482 10.1108 5.45209 8.91302L5.777 7.27564ZM6.38468 21.2367C6.12099 21.2318 5.86075 21.1597 5.61937 21.0245C5.37798 20.8893 5.16035 20.6938 4.97937 20.4496C4.7984 20.2054 4.65774 19.9174 4.56575 19.6028C4.47375 19.2881 4.43228 18.9531 4.44378 18.6177C4.45529 18.2823 4.51955 17.9532 4.63274 17.6499C4.74594 17.3467 4.90578 17.0754 5.10279 16.8522C5.29981 16.629 5.52999 16.4585 5.77972 16.3506C6.02945 16.2427 6.29364 16.1997 6.55665 16.2241C7.06811 16.2717 7.54488 16.5711 7.88577 17.0589C8.22666 17.5467 8.40482 18.1844 8.38245 18.8367C8.36007 19.489 8.13891 20.1046 7.76591 20.5526C7.39291 21.0007 6.89745 21.2461 6.38468 21.2367ZM17.4105 19.3873C17.41 19.5851 17.3479 19.7747 17.2378 19.9143C17.1277 20.054 16.9787 20.1324 16.8232 20.1324H11.2855C11.1302 20.1324 10.9813 20.0541 10.8712 19.9146C10.7611 19.7752 10.6989 19.5859 10.6982 19.3881V17.2929C10.6982 16.881 10.962 16.5478 11.2855 16.5478H16.8232C17.1468 16.5478 17.4105 16.881 17.4105 17.2921V19.3873ZM21.6344 21.2367C21.3754 21.2373 21.119 21.1729 20.8796 21.0472C20.6402 20.9216 20.4226 20.7371 20.2393 20.5044C20.0559 20.2716 19.9103 19.9952 19.8109 19.6908C19.7115 19.3864 19.6601 19.0601 19.6597 18.7304C19.6601 18.4008 19.7115 18.0744 19.8109 17.77C19.9103 17.4657 20.0559 17.1892 20.2393 16.9565C20.4226 16.7237 20.6402 16.5393 20.8796 16.4136C21.119 16.288 21.3754 16.2236 21.6344 16.2241C21.8932 16.2237 22.1496 16.2882 22.3889 16.4139C22.6282 16.5396 22.8457 16.724 23.029 16.9568C23.2123 17.1895 23.3578 17.4659 23.4572 17.7702C23.5566 18.0746 23.6079 18.4008 23.6083 18.7304C23.6072 19.3959 23.3987 20.0336 23.0286 20.5035C22.6585 20.9735 22.157 21.2372 21.6344 21.2367Z" fill="#29BEB6" fill-opacity="0.35"/>
</svg>
