<svg width="28" height="28" viewBox="0 0 28 28" fill="none" xmlns="http://www.w3.org/2000/svg">
<path d="M15.1667 9.33333C16.0949 9.33333 16.9852 9.70208 17.6415 10.3585C18.2979 11.0148 18.6667 11.9051 18.6667 12.8333C18.6667 13.1428 18.7896 13.4395 19.0084 13.6583C19.2272 13.8771 19.5239 14 19.8333 14C20.1428 14 20.4395 13.8771 20.6583 13.6583C20.8771 13.4395 21 13.1428 21 12.8333C21 11.2862 20.3854 9.80251 19.2915 8.70854C18.1975 7.61458 16.7138 7 15.1667 7C14.8572 7 14.5605 7.12292 14.3417 7.34171C14.1229 7.5605 14 7.85725 14 8.16667C14 8.47609 14.1229 8.77283 14.3417 8.99162C14.5605 9.21042 14.8572 9.33333 15.1667 9.33333V9.33333Z" fill="#29BEB6" fill-opacity="0.35"/>
<path d="M15.1667 4.66666C17.3326 4.66666 19.4099 5.52708 20.9414 7.05862C22.473 8.59017 23.3334 10.6674 23.3334 12.8333C23.3334 13.1427 23.4563 13.4395 23.6751 13.6583C23.8939 13.8771 24.1906 14 24.5 14C24.8095 14 25.1062 13.8771 25.325 13.6583C25.5438 13.4395 25.6667 13.1427 25.6667 12.8333C25.6667 10.0486 24.5605 7.37784 22.5913 5.40871C20.6222 3.43957 17.9515 2.33333 15.1667 2.33333C14.8573 2.33333 14.5605 2.45624 14.3417 2.67504C14.123 2.89383 14 3.19058 14 3.49999C14 3.80941 14.123 4.10616 14.3417 4.32495C14.5605 4.54375 14.8573 4.66666 15.1667 4.66666V4.66666ZM25.375 18.5617C25.3109 18.3744 25.2001 18.2065 25.0531 18.0738C24.9062 17.9412 24.7279 17.8481 24.535 17.8033L17.535 16.205C17.345 16.1619 17.1473 16.1671 16.9598 16.2201C16.7723 16.2731 16.6011 16.3722 16.4617 16.5083C16.2984 16.66 16.2867 16.6717 15.5284 18.1183C13.0121 16.9588 10.9959 14.9343 9.84671 12.4133C11.3284 11.6667 11.34 11.6667 11.4917 11.4917C11.6279 11.3523 11.727 11.1811 11.7799 10.9936C11.8329 10.8061 11.8381 10.6083 11.795 10.4183L10.1967 3.49999C10.152 3.30714 10.0589 3.12884 9.92621 2.98189C9.79354 2.83494 9.62566 2.72416 9.43837 2.65999C9.16592 2.56268 8.88457 2.49235 8.59837 2.44999C8.3035 2.38162 8.0026 2.34254 7.70004 2.33333C6.27671 2.33333 4.91168 2.89874 3.90523 3.90519C2.89879 4.91163 2.33337 6.27667 2.33337 7.7C2.33955 12.4632 4.23444 17.0295 7.60251 20.3975C10.9706 23.7656 15.5369 25.6605 20.3 25.6667C21.0048 25.6667 21.7027 25.5278 22.3538 25.2581C23.0049 24.9884 23.5965 24.5931 24.0948 24.0948C24.5932 23.5965 24.9885 23.0048 25.2582 22.3537C25.5279 21.7026 25.6667 21.0048 25.6667 20.3C25.6671 20.003 25.6437 19.7065 25.5967 19.4133C25.5477 19.1235 25.4735 18.8386 25.375 18.5617V18.5617Z" fill="#29BEB6" fill-opacity="0.35"/>
</svg>
