<svg width="220" height="116" viewBox="0 0 220 116" fill="none" xmlns="http://www.w3.org/2000/svg">
<g filter="url(#filter0_f_1_17)">
<path d="M199.91 57.0383C199.91 57.0383 159.636 93.4372 109.955 93.4372C60.2743 93.4372 20 57.0383 20 57.0383C20 36.9358 60.2743 20.6395 109.955 20.6395C159.636 20.6395 199.91 36.9358 199.91 57.0383Z" fill="url(#paint0_linear_1_17)" fill-opacity="0.4"/>
</g>
<g filter="url(#filter1_f_1_17)">
<path d="M160.799 73.3108C160.799 85.3723 138.036 95.1501 109.955 95.1501C81.8746 95.1501 59.1109 85.3723 59.1109 73.3108C59.1109 61.2492 81.8746 61.7488 109.955 61.7488C138.036 61.7488 160.799 61.2492 160.799 73.3108Z" fill="white" fill-opacity="0.3"/>
</g>
<defs>
<filter id="filter0_f_1_17" x="0" y="0.639484" width="219.91" height="112.798" filterUnits="userSpaceOnUse" color-interpolation-filters="sRGB">
<feFlood flood-opacity="0" result="BackgroundImageFix"/>
<feBlend mode="normal" in="SourceGraphic" in2="BackgroundImageFix" result="shape"/>
<feGaussianBlur stdDeviation="10" result="effect1_foregroundBlur_1_17"/>
</filter>
<filter id="filter1_f_1_17" x="39.1109" y="41.7459" width="141.688" height="73.4042" filterUnits="userSpaceOnUse" color-interpolation-filters="sRGB">
<feFlood flood-opacity="0" result="BackgroundImageFix"/>
<feBlend mode="normal" in="SourceGraphic" in2="BackgroundImageFix" result="shape"/>
<feGaussianBlur stdDeviation="10" result="effect1_foregroundBlur_1_17"/>
</filter>
<linearGradient id="paint0_linear_1_17" x1="109.628" y1="30.4392" x2="110.294" y2="93.4336" gradientUnits="userSpaceOnUse">
<stop offset="0.00552486" stop-color="white" stop-opacity="0.2"/>
<stop offset="1" stop-color="white"/>
</linearGradient>
</defs>
</svg>
