<svg width="44" height="44" viewBox="0 0 28 28" fill="none" xmlns="http://www.w3.org/2000/svg">
<path d="M7.00004 21.6685C9.57371 21.6685 11.6667 19.5755 11.6667 17.0018V5.166L22.1667 8.98333V17.6517C21.4607 17.231 20.6552 17.0067 19.8334 17.0018C17.2597 17.0018 15.1667 19.0948 15.1667 21.6685C15.1667 24.2422 17.2597 26.3352 19.8334 26.3352C22.407 26.3352 24.5 24.2422 24.5 21.6685V8.16667C24.5002 7.9273 24.4266 7.6937 24.2892 7.49767C24.1519 7.30164 23.9574 7.15271 23.7324 7.07117L10.899 2.4045C10.7229 2.3401 10.5337 2.31917 10.3478 2.34349C10.1618 2.36781 9.98438 2.43666 9.83069 2.5442C9.677 2.65174 9.55154 2.79478 9.46496 2.96118C9.37838 3.12758 9.33324 3.31242 9.33337 3.5V12.985C8.62739 12.5644 7.82182 12.34 7.00004 12.3352C4.42637 12.3352 2.33337 14.4282 2.33337 17.0018C2.33337 19.5755 4.42637 21.6685 7.00004 21.6685Z" fill="#B8FF01"/>
</svg>
