<svg width="44" height="44" viewBox="0 0 44 44" fill="none" xmlns="http://www.w3.org/2000/svg">
<path d="M42.8517 12.925H38.7298C38.5418 12.9291 38.3559 12.993 38.1925 13.1086L36.335 5.9974C35.7422 1.95425 33.5002 0 30.7476 0H13.2909C10.1292 0 8.21081 2.61927 7.70238 5.99332L5.83954 13.1276C5.66684 12.9967 5.47013 12.9259 5.26915 12.9223H1.14825C0.997654 12.9219 0.848474 12.9594 0.709244 13.0325C0.570014 13.1055 0.443462 13.2129 0.336823 13.3483C0.230184 13.4836 0.145548 13.6445 0.0877536 13.8215C0.0299595 13.9986 0.000140093 14.1884 0 14.3802V15.6449C0 16.4487 0.513777 17.1042 1.14825 17.1042L2.70774 17.4441C2.18403 18.7618 1.91904 20.2215 1.93547 21.6981L1.35761 30.089C1.35761 30.3311 1.3715 30.5786 1.39499 30.8288C1.3719 30.9858 1.35939 31.1451 1.35761 31.3048V41.3998C1.35761 42.8372 2.27408 44 3.40524 44H6.52956C6.79821 44.0007 7.06435 43.934 7.31274 43.8037C7.56114 43.6734 7.78692 43.482 7.97719 43.2405C8.16746 42.999 8.31847 42.7121 8.42161 42.3963C8.52474 42.0804 8.57797 41.7418 8.57825 41.3998V38.1576H35.4591V41.3998C35.4591 42.8372 36.3756 44 37.5068 44H40.6332C40.9018 44.0005 41.1678 43.9337 41.4161 43.8033C41.6643 43.6729 41.89 43.4815 42.0802 43.24C42.2703 42.9985 42.4212 42.7117 42.5243 42.396C42.6274 42.0802 42.6806 41.7417 42.6808 41.3998V31.3035C42.6808 31.1443 42.667 30.9852 42.6424 30.8288C42.6659 30.5786 42.6808 30.3311 42.6808 30.0877L42.1019 21.6967C42.1019 20.0634 41.8199 18.664 41.3264 17.4373L42.8507 17.1082C43.0015 17.1088 43.1508 17.0714 43.2903 16.9983C43.4297 16.9252 43.5564 16.8178 43.6632 16.6823C43.7699 16.5467 43.8547 16.3857 43.9125 16.2084C43.9702 16.0311 44 15.841 44 15.649V14.3842C43.9986 13.9971 43.8769 13.6263 43.6616 13.353C43.4463 13.0796 43.1548 12.9257 42.8507 12.925H42.8517ZM9.07814 11.4331L10.4422 6.82018L10.4593 6.71138C10.5949 5.78117 10.8972 5.61254 11.3458 4.89448H32.7065C33.1594 5.6343 33.4414 5.82197 33.5642 6.70458L34.9518 11.4372L35.4602 14.0075C35.3448 15.8884 33.5642 17.3734 32.087 17.3734H11.9429C10.4625 17.3734 8.68186 15.8884 8.56757 14.0062L9.07814 11.4331ZM10.0331 33.3719C9.6187 33.3643 9.20975 33.2509 8.83043 33.0385C8.45111 32.826 8.10913 32.5188 7.82473 32.1351C7.54034 31.7513 7.31931 31.2988 7.17474 30.8043C7.03017 30.3099 6.965 29.7835 6.98309 29.2564C7.00117 28.7293 7.10214 28.2121 7.28003 27.7356C7.45791 27.2591 7.70908 26.8328 8.01867 26.4821C8.32827 26.1314 8.68999 25.8633 9.08242 25.6938C9.47484 25.5242 9.89 25.4567 10.3033 25.4951C11.107 25.5698 11.8562 26.0404 12.3919 26.8069C12.9276 27.5734 13.2076 28.5755 13.1724 29.6006C13.1372 30.6256 12.7897 31.5929 12.2036 32.297C11.6174 33.0012 10.8388 33.3867 10.0331 33.3719ZM27.3594 30.4657C27.3586 30.7766 27.261 31.0745 27.088 31.2939C26.915 31.5134 26.6807 31.6366 26.4365 31.6366H17.7344C17.4903 31.6366 17.2563 31.5136 17.0833 31.2944C16.9104 31.0752 16.8126 30.7778 16.8115 30.4671V27.1746C16.8115 26.5273 17.2259 26.0037 17.7344 26.0037H26.4365C26.945 26.0037 27.3594 26.5273 27.3594 27.1733V30.4657ZM33.9968 33.3719C33.59 33.3728 33.1869 33.2717 32.8108 33.0742C32.4346 32.8767 32.0927 32.5869 31.8046 32.2211C31.5164 31.8554 31.2877 31.421 31.1314 30.9427C30.9752 30.4644 30.8944 29.9515 30.8939 29.4335C30.8944 28.9155 30.9752 28.4027 31.1314 27.9244C31.2877 27.446 31.5164 27.0116 31.8046 26.6459C32.0927 26.2802 32.4346 25.9903 32.8108 25.7928C33.1869 25.5954 33.59 25.4942 33.9968 25.4951C34.4036 25.4944 34.8065 25.5957 35.1826 25.7932C35.5586 25.9907 35.9004 26.2806 36.1884 26.6464C36.4765 27.0121 36.7051 27.4465 36.8613 27.9247C37.0175 28.4029 37.0982 28.9156 37.0987 29.4335C37.097 30.4793 36.7694 31.4814 36.1878 32.2199C35.6062 32.9583 34.8182 33.3727 33.9968 33.3719Z" fill="#B8FF01"/>
</svg>
