<svg width="44" height="44" viewBox="0 0 30 30" fill="none" xmlns="http://www.w3.org/2000/svg">
<g clip-path="url(#clip0_102_34)">
<path d="M27.1416 13.1L24.35 12.2667C24.157 11.5928 23.8915 10.9417 23.5583 10.325L24.925 7.76667C24.9763 7.6701 24.995 7.55958 24.9785 7.45149C24.962 7.3434 24.9111 7.24352 24.8333 7.16667L22.8416 5.16667C22.7648 5.0889 22.6649 5.03797 22.5568 5.02146C22.4487 5.00495 22.3382 5.02372 22.2416 5.07501L19.7 6.43334C19.0772 6.08389 18.4176 5.80441 17.7333 5.60001L16.9 2.84167C16.8647 2.74002 16.7981 2.65217 16.7098 2.59077C16.6214 2.52938 16.5159 2.4976 16.4083 2.50001H13.5916C13.4834 2.50051 13.3782 2.53553 13.2913 2.59998C13.2043 2.66443 13.1402 2.75494 13.1083 2.85834L12.275 5.60834C11.585 5.81165 10.9198 6.09115 10.2916 6.44167L7.79164 5.09167C7.69507 5.04039 7.58455 5.02161 7.47646 5.03813C7.36837 5.05464 7.26849 5.10556 7.19164 5.18334L5.16664 7.15834C5.08887 7.23519 5.03794 7.33507 5.02143 7.44316C5.00492 7.55124 5.02369 7.66177 5.07498 7.75834L6.42498 10.2583C6.07502 10.8838 5.79554 11.5462 5.59164 12.2333L2.83331 13.0667C2.72991 13.0986 2.6394 13.1627 2.57495 13.2496C2.5105 13.3366 2.47548 13.4418 2.47498 13.55V16.3667C2.47548 16.4749 2.5105 16.5801 2.57495 16.667C2.6394 16.754 2.72991 16.8181 2.83331 16.85L5.60831 17.6833C5.81443 18.359 6.09387 19.0101 6.44164 19.625L5.07498 22.2417C5.02369 22.3382 5.00492 22.4488 5.02143 22.5569C5.03794 22.6649 5.08887 22.7648 5.16664 22.8417L7.15831 24.8333C7.23516 24.9111 7.33504 24.962 7.44313 24.9786C7.55121 24.9951 7.66174 24.9763 7.75831 24.925L10.3333 23.55C10.9424 23.8787 11.585 24.1413 12.25 24.3333L13.0833 27.1417C13.1152 27.2451 13.1793 27.3356 13.2663 27.4C13.3532 27.4645 13.4584 27.4995 13.5666 27.5H16.3833C16.4915 27.4995 16.5968 27.4645 16.6837 27.4C16.7706 27.3356 16.8347 27.2451 16.8666 27.1417L17.7 24.325C18.3593 24.132 18.9962 23.8694 19.6 23.5417L22.1916 24.925C22.2882 24.9763 22.3987 24.9951 22.5068 24.9786C22.6149 24.962 22.7148 24.9111 22.7916 24.8333L24.7833 22.8417C24.8611 22.7648 24.912 22.6649 24.9285 22.5569C24.945 22.4488 24.9263 22.3382 24.875 22.2417L23.4916 19.6583C23.8228 19.0523 24.0882 18.4125 24.2833 17.75L27.0916 16.9167C27.195 16.8847 27.2856 16.8206 27.35 16.7337C27.4144 16.6468 27.4495 16.5416 27.45 16.4333V13.5917C27.4549 13.488 27.428 13.3854 27.3729 13.2975C27.3178 13.2096 27.2371 13.1407 27.1416 13.1V13.1ZM15 19.5833C14.0935 19.5833 13.2073 19.3145 12.4536 18.8109C11.6999 18.3073 11.1124 17.5915 10.7655 16.754C10.4186 15.9165 10.3279 14.9949 10.5047 14.1058C10.6816 13.2168 11.1181 12.4001 11.7591 11.7591C12.4001 11.1181 13.2167 10.6816 14.1058 10.5047C14.9949 10.3279 15.9164 10.4187 16.7539 10.7656C17.5914 11.1125 18.3073 11.6999 18.8109 12.4536C19.3145 13.2074 19.5833 14.0935 19.5833 15C19.5833 16.2156 19.1004 17.3814 18.2409 18.2409C17.3813 19.1005 16.2156 19.5833 15 19.5833V19.5833Z" fill="#B8FF01"/>
</g>
<defs>
<clipPath id="clip0_102_34">
<rect width="30" height="30" fill="white"/>
</clipPath>
</defs>
</svg>
