<svg width="320" height="301" viewBox="0 0 320 301" fill="none" xmlns="http://www.w3.org/2000/svg">
<path fill-rule="evenodd" clip-rule="evenodd" d="M314.999 160.486L319.999 160.501C320 160.334 320 160.167 320 160C320 159.833 320 159.666 319.999 159.499L314.999 159.514L309.999 159.529L310 159.713L310 160C310 160.157 310 160.314 309.999 160.471L314.999 160.486ZM314.786 151.785L319.779 151.524C319.762 151.19 319.743 150.857 319.724 150.524L314.733 150.815L309.741 151.107C309.759 151.42 309.777 151.732 309.793 152.045L314.786 151.785ZM314.091 143.112L319.062 142.574C319.026 142.242 318.989 141.911 318.951 141.58L313.984 142.149L309.016 142.718C309.052 143.029 309.086 143.339 309.12 143.65L314.091 143.112ZM312.912 134.495L317.845 133.679C317.791 133.35 317.736 133.022 317.679 132.694L312.751 133.541L307.824 134.388C307.877 134.696 307.929 135.003 307.98 135.312L312.912 134.495ZM311.252 125.96L316.131 124.867C316.096 124.713 316.061 124.559 316.026 124.405C315.988 124.234 315.949 124.064 315.909 123.894L311.037 125.018L306.165 126.142C306.235 126.445 306.304 126.749 306.373 127.054L311.252 125.96ZM309.112 117.535L313.922 116.168C313.831 115.848 313.739 115.529 313.646 115.21L308.845 116.607L304.044 118.004C304.073 118.103 304.102 118.202 304.131 118.301C304.188 118.501 304.246 118.701 304.303 118.902L309.112 117.535ZM306.5 109.244L311.225 107.608C311.116 107.294 311.007 106.98 310.896 106.667L306.182 108.333L301.467 110C301.571 110.293 301.674 110.587 301.776 110.881L306.5 109.244ZM303.425 101.115L308.049 99.2143C307.923 98.9071 307.796 98.6005 307.668 98.2943L303.055 100.224L298.442 102.154C298.562 102.441 298.682 102.728 298.8 103.016L303.425 101.115ZM299.895 93.1721L304.405 91.0136C304.261 90.7136 304.117 90.4141 303.971 90.1151L299.475 92.3018L294.978 94.4885C295.115 94.7687 295.25 95.0494 295.385 95.3306L299.895 93.1721ZM295.922 85.438L300.303 83.0292C300.206 82.8512 300.107 82.6734 300.009 82.4958C299.946 82.3824 299.883 82.2691 299.82 82.1559L295.453 84.592L291.087 87.0282C291.239 87.3005 291.39 87.5734 291.54 87.8468L295.922 85.438ZM291.52 77.9384L295.76 75.2875C295.665 75.1362 295.57 74.9851 295.475 74.8342C295.393 74.7037 295.31 74.5734 295.228 74.4432L291.005 77.1205L286.782 79.7978C286.841 79.8901 286.899 79.9826 286.958 80.0751C287.066 80.2463 287.173 80.4177 287.281 80.5894L291.52 77.9384ZM286.705 70.6974L290.789 67.8133C290.598 67.5417 290.405 67.2707 290.211 67.0003L286.145 69.9097L282.079 72.8192C282.26 73.0727 282.441 73.3268 282.621 73.5815L286.705 70.6974ZM281.492 63.7368L285.409 60.629C285.202 60.3686 284.995 60.1088 284.787 59.8497L280.889 62.9818L276.992 66.1138C277.187 66.3568 277.382 66.6004 277.575 66.8446L281.492 63.7368ZM278.972 53.013C279.194 53.2601 279.415 53.5079 279.636 53.7564L275.899 57.0778L272.161 60.3992C271.954 60.1662 271.747 59.9338 271.538 59.702L275.255 56.3575L278.972 53.013ZM269.943 50.7407L273.489 47.2161C273.255 46.9803 273.02 46.7452 272.784 46.5108L269.259 50.0573L265.735 53.6038C265.956 53.8236 266.176 54.0441 266.396 54.2652L269.943 50.7407ZM263.642 44.7452L266.987 41.0285C266.74 40.8061 266.492 40.5845 266.244 40.3637L262.922 44.1011L259.601 47.8385C259.834 48.0456 260.066 48.2534 260.298 48.462L263.642 44.7452ZM257.018 39.1107L260.15 35.2132C259.891 35.005 259.631 34.7976 259.371 34.5909L256.263 38.5078L253.155 42.4246C253.4 42.6184 253.643 42.8129 253.886 43.0082L257.018 39.1107ZM250.09 33.8549L253 29.7886C252.729 29.5951 252.458 29.4025 252.187 29.2107L249.303 33.295L246.418 37.3794C246.673 37.5592 246.927 37.7399 247.181 37.9213L250.09 33.8549ZM242.88 28.9949L245.557 24.7721C245.276 24.594 244.995 24.4168 244.712 24.2404L242.062 28.4798L239.411 32.7192C239.675 32.8846 239.939 33.0507 240.202 33.2177L242.88 28.9949ZM235.408 24.5466L237.844 20.1803C237.554 20.0182 237.262 19.8569 236.971 19.6966L234.562 24.0781L232.153 28.4596C232.427 28.6099 232.699 28.761 232.972 28.913L235.408 24.5466ZM227.698 20.5251L229.885 16.0286C229.586 15.8832 229.286 15.7387 228.986 15.5951L226.828 20.1052L224.669 24.6153C224.951 24.7499 225.231 24.8853 225.512 25.0216L227.698 20.5251ZM219.776 16.9449L221.706 12.3323C221.4 12.2042 221.093 12.0771 220.786 11.9508L218.885 16.5755L216.984 21.2001C217.272 21.3184 217.559 21.4375 217.846 21.5575L219.776 16.9449ZM211.667 13.8183L213.333 9.10409C213.02 8.99345 212.706 8.88375 212.392 8.77501L210.756 13.4996L209.119 18.2241C209.413 18.326 209.707 18.4288 210 18.5325L211.667 13.8183ZM203.393 11.1547L204.79 6.3539C204.471 6.26107 204.152 6.1692 203.832 6.07831L202.465 10.8878L201.098 15.6973C201.398 15.7825 201.697 15.8686 201.996 15.9556L203.393 11.1547ZM194.982 8.96271L196.106 4.09062C195.782 4.0159 195.457 3.94216 195.133 3.8694L194.04 8.74845L192.946 13.6275C193.251 13.6957 193.555 13.7648 193.858 13.8348L194.982 8.96271ZM186.459 7.24858L187.306 2.3209C186.978 2.2645 186.65 2.2091 186.321 2.15469L185.505 7.08758L184.689 12.0205C184.997 12.0715 185.304 12.1234 185.612 12.1763L186.459 7.24858ZM177.851 6.01634L178.42 1.04887C178.089 1.01092 177.758 0.973985 177.426 0.938061L176.888 5.90899L176.35 10.8799C176.661 10.9136 176.971 10.9482 177.282 10.9838L177.851 6.01634ZM169.185 5.26746L169.476 0.275966C169.143 0.256511 168.81 0.238075 168.476 0.22066L168.215 5.21386L167.955 10.2071C168.268 10.2234 168.581 10.2407 168.893 10.259L169.185 5.26746ZM160.486 5.00075L160.501 0.000769185C160.334 0.000256519 160.167 0 160 0C159.833 0 159.666 0.000256464 159.499 0.000769021L159.514 5.00075L159.529 10.0007C159.686 10.0002 159.843 10 160 10C160.157 10 160.314 10.0002 160.471 10.0007L160.486 5.00075ZM151.785 5.21386L151.524 0.220658C151.19 0.238072 150.857 0.256508 150.524 0.275963L150.815 5.26746L151.107 10.259C151.42 10.2407 151.732 10.2234 152.045 10.2071L151.785 5.21386ZM141.58 1.04887C141.911 1.01092 142.242 0.973981 142.574 0.938058L143.112 5.90898L143.65 10.8799C143.339 10.9136 143.029 10.9482 142.718 10.9838L142.149 6.01634L141.58 1.04887ZM134.495 7.08758L133.679 2.15469C133.35 2.20909 133.022 2.2645 132.694 2.3209L133.541 7.24858L134.388 12.1763C134.696 12.1234 135.003 12.0715 135.312 12.0205L134.495 7.08758ZM125.96 8.74844L124.867 3.8694C124.543 3.94215 124.218 4.0159 123.894 4.09062L125.018 8.96271L126.142 13.8348C126.445 13.7648 126.749 13.6957 127.054 13.6275L125.96 8.74844ZM115.21 6.35389C115.529 6.26106 115.848 6.1692 116.168 6.0783L117.535 10.8878L118.902 15.6973C118.602 15.7825 118.303 15.8686 118.004 15.9556L116.607 11.1547L115.21 6.35389ZM109.244 13.4996L107.608 8.775C107.294 8.88375 106.98 8.99344 106.667 9.10409L108.333 13.8183L110 18.5325C110.293 18.4288 110.587 18.326 110.881 18.2241L109.244 13.4996ZM101.115 16.5755L99.2143 11.9508C98.9071 12.0771 98.6005 12.2042 98.2943 12.3323L100.224 16.9449L102.154 21.5575C102.441 21.4375 102.728 21.3183 103.016 21.2001L101.115 16.5755ZM93.1721 20.1052L91.0136 15.5951C90.7136 15.7387 90.4141 15.8832 90.1151 16.0286L92.3018 20.5251L94.4885 25.0216C94.7687 24.8853 95.0494 24.7499 95.3306 24.6153L93.1721 20.1052ZM85.438 24.0781L83.0292 19.6966C82.7375 19.8569 82.4464 20.0182 82.1559 20.1803L84.592 24.5466L87.0282 28.913C87.3005 28.761 87.5734 28.6099 87.8468 28.4596L85.438 24.0781ZM77.9384 28.4798L75.2875 24.2404C75.0055 24.4168 74.724 24.594 74.4431 24.7721L77.1205 28.9949L79.7978 33.2177C80.0611 33.0507 80.325 32.8846 80.5894 32.7192L77.9384 28.4798ZM70.6974 33.295L67.8133 29.2107C67.5417 29.4025 67.2707 29.5951 67.0003 29.7886L69.9097 33.8549L72.8192 37.9212C73.0727 37.7399 73.3268 37.5592 73.5815 37.3794L70.6974 33.295ZM63.7368 38.5078L60.629 34.5909C60.3686 34.7975 60.1088 35.005 59.8497 35.2132L62.9818 39.1107L66.1138 43.0082C66.3568 42.8129 66.6004 42.6184 66.8446 42.4246L63.7368 38.5078ZM57.0778 44.1011L53.7564 40.3637C53.5079 40.5845 53.2601 40.8061 53.013 41.0285L56.3575 44.7452L59.702 48.462C59.9338 48.2534 60.1662 48.0456 60.3992 47.8385L57.0778 44.1011ZM50.7407 50.0573L47.2161 46.5108C46.9803 46.7452 46.7452 46.9803 46.5108 47.2161L50.0573 50.7407L53.6038 54.2652C53.8236 54.0441 54.0441 53.8236 54.2652 53.6038L50.7407 50.0573ZM44.7452 56.3575L41.0285 53.013C40.8061 53.2601 40.5845 53.5079 40.3637 53.7564L44.1011 57.0778L47.8385 60.3992C48.0456 60.1662 48.2534 59.9338 48.462 59.702L44.7452 56.3575ZM39.1107 62.9817L35.2132 59.8497C35.005 60.1088 34.7976 60.3686 34.5909 60.629L38.5078 63.7368L42.4246 66.8446C42.6184 66.6004 42.8129 66.3568 43.0082 66.1138L39.1107 62.9817ZM33.8549 69.9097L29.7886 67.0003C29.5951 67.2707 29.4025 67.5417 29.2107 67.8133L33.295 70.6974L37.3794 73.5815C37.5592 73.3268 37.7399 73.0727 37.9213 72.8192L33.8549 69.9097ZM28.9949 77.1204L24.7721 74.4431C24.594 74.724 24.4168 75.0055 24.2404 75.2875L28.4798 77.9384L32.7192 80.5894C32.8846 80.325 33.0507 80.0611 33.2177 79.7978L28.9949 77.1204ZM24.5466 84.592L20.1803 82.1558C20.0182 82.4464 19.8569 82.7375 19.6966 83.0292L24.0781 85.438L28.4596 87.8468C28.6099 87.5734 28.761 87.3005 28.913 87.0282L24.5466 84.592ZM20.5251 92.3018L16.0286 90.1151C15.8832 90.4141 15.7387 90.7136 15.5951 91.0136L20.1052 93.1721L24.6153 95.3306C24.7499 95.0494 24.8853 94.7687 25.0216 94.4885L20.5251 92.3018ZM16.9449 100.224L12.3323 98.2943C12.2042 98.6005 12.0771 98.9071 11.9508 99.2143L16.5755 101.115L21.2001 103.016C21.3184 102.728 21.4375 102.441 21.5575 102.154L16.9449 100.224ZM13.8183 108.333L9.10409 106.667C8.99345 106.98 8.88375 107.294 8.77501 107.608L13.4996 109.244L18.2241 110.881C18.326 110.587 18.4288 110.293 18.5325 110L13.8183 108.333ZM11.1547 116.607L6.3539 115.21C6.26107 115.529 6.1692 115.848 6.07831 116.168L10.8878 117.535L15.6973 118.902C15.7825 118.602 15.8686 118.303 15.9556 118.004L11.1547 116.607ZM8.96271 125.018L4.09063 123.894C4.0159 124.218 3.94216 124.543 3.8694 124.867L8.74845 125.96L13.6275 127.054C13.6957 126.749 13.7648 126.445 13.8348 126.142L8.96271 125.018ZM7.24858 133.541L2.3209 132.694C2.2645 133.022 2.2091 133.35 2.15469 133.679L7.08758 134.495L12.0205 135.311C12.0715 135.003 12.1234 134.696 12.1763 134.388L7.24858 133.541ZM6.01634 142.149L1.04887 141.58C1.01092 141.911 0.973985 142.242 0.938061 142.574L5.90899 143.112L10.8799 143.65C10.9136 143.339 10.9482 143.029 10.9838 142.718L6.01634 142.149ZM0.22066 151.524C0.238074 151.19 0.256511 150.857 0.275966 150.524L5.26746 150.815L10.259 151.107C10.2407 151.419 10.2234 151.732 10.2071 152.045L5.21386 151.785L0.22066 151.524ZM0 160C0 159.833 0.000256519 159.666 0.000769185 159.499L5.00075 159.514L10.0007 159.529C10.0002 159.686 10 159.843 10 160C10 160.157 10.0002 160.314 10.0007 160.471L5.00075 160.486L0.000769021 160.501C0.000256464 160.334 0 160.167 0 160ZM5.21386 168.215L0.220658 168.476C0.238072 168.81 0.256508 169.143 0.275963 169.476L5.26746 169.185L10.259 168.893C10.2407 168.58 10.2234 168.268 10.2071 167.955L5.21386 168.215ZM1.04887 178.42C1.01092 178.089 0.973982 177.758 0.938058 177.426L5.90898 176.888L10.8799 176.35C10.9136 176.661 10.9482 176.971 10.9838 177.282L6.01634 177.851L1.04887 178.42ZM7.08758 185.505L2.15469 186.321C2.20909 186.65 2.2645 186.978 2.3209 187.306L7.24858 186.459L12.1763 185.612C12.1234 185.304 12.0715 184.997 12.0205 184.688L7.08758 185.505ZM8.74844 194.04L3.8694 195.133C3.94215 195.457 4.01589 195.782 4.09062 196.106L8.96271 194.982L13.8348 193.858C13.7648 193.555 13.6957 193.251 13.6275 192.946L8.74844 194.04ZM10.8878 202.465L6.0783 203.832C6.1692 204.152 6.26106 204.471 6.35389 204.79L11.1547 203.393L15.9556 201.996C15.8686 201.697 15.7825 201.398 15.6973 201.098L10.8878 202.465ZM13.4996 210.756L8.77501 212.392C8.88375 212.706 8.99345 213.02 9.10409 213.333L13.8183 211.667L18.5325 210C18.4288 209.707 18.326 209.413 18.2241 209.119L13.4996 210.756ZM16.5755 218.885L11.9508 220.786C12.0771 221.093 12.2042 221.4 12.3323 221.706L16.9449 219.776L21.5575 217.846C21.4375 217.559 21.3183 217.272 21.2001 216.984L16.5755 218.885ZM20.1052 226.828L15.5951 228.986C15.7387 229.286 15.8832 229.586 16.0286 229.885L20.5251 227.698L25.0216 225.512C24.8853 225.231 24.7499 224.951 24.6153 224.669L20.1052 226.828ZM24.0781 234.562L19.6966 236.971C19.8569 237.262 20.0182 237.554 20.1803 237.844L24.5466 235.408L28.913 232.972C28.761 232.699 28.6099 232.427 28.4596 232.153L24.0781 234.562ZM28.4798 242.062L24.2404 244.712C24.4168 244.995 24.594 245.276 24.7721 245.557L28.9949 242.88L33.2177 240.202C33.0507 239.939 32.8846 239.675 32.7192 239.411L28.4798 242.062ZM33.295 249.303L29.2107 252.187C29.4025 252.458 29.5951 252.729 29.7886 253L33.8549 250.09L37.9212 247.181C37.7399 246.927 37.5592 246.673 37.3794 246.418L33.295 249.303ZM38.5078 256.263L34.5909 259.371C34.7975 259.631 35.005 259.891 35.2132 260.15L39.1107 257.018L43.0082 253.886C42.8129 253.643 42.6184 253.4 42.4246 253.155L38.5078 256.263ZM44.1011 262.922L40.3637 266.244C40.5845 266.492 40.8061 266.74 41.0285 266.987L44.7452 263.642L48.462 260.298C48.2534 260.066 48.0456 259.834 47.8385 259.601L44.1011 262.922ZM50.0573 269.259L46.5108 272.784C46.7452 273.02 46.9803 273.255 47.2161 273.489L50.7407 269.943L54.2652 266.396C54.0441 266.176 53.8236 265.956 53.6038 265.735L50.0573 269.259ZM56.3575 275.255L53.013 278.972C53.2601 279.194 53.5079 279.415 53.7564 279.636L57.0778 275.899L60.3992 272.161C60.1662 271.954 59.9338 271.747 59.702 271.538L56.3575 275.255ZM62.9817 280.889L59.8497 284.787C60.0056 284.912 60.1616 285.037 60.318 285.162C60.4215 285.244 60.5252 285.327 60.629 285.409L63.7368 281.492L66.8446 277.575C66.6004 277.382 66.3568 277.187 66.1138 276.992L62.9817 280.889ZM69.9097 286.145L67.0003 290.211C67.2707 290.405 67.5417 290.598 67.8133 290.789L70.6974 286.705L73.5815 282.621C73.3268 282.441 73.0727 282.26 72.8192 282.079L69.9097 286.145ZM77.1204 291.005L74.4431 295.228C74.724 295.406 75.0055 295.583 75.2875 295.76L77.9384 291.52L80.5894 287.281C80.325 287.115 80.0611 286.949 79.7978 286.782L77.1204 291.005ZM84.592 295.453L82.1558 299.82C82.4464 299.982 82.7375 300.143 83.0292 300.303L85.438 295.922L87.8468 291.54C87.5734 291.39 87.3005 291.239 87.0282 291.087L84.592 295.453ZM234.562 295.922L236.971 300.303C237.262 300.143 237.554 299.982 237.844 299.82L235.408 295.453L232.972 291.087C232.699 291.239 232.427 291.39 232.153 291.54L234.562 295.922ZM242.062 291.52L244.712 295.76C244.995 295.583 245.276 295.406 245.557 295.228L242.88 291.005L240.202 286.782C239.939 286.949 239.675 287.115 239.411 287.281L242.062 291.52ZM249.303 286.705L252.187 290.789C252.458 290.598 252.729 290.405 253 290.211L250.09 286.145L247.181 282.079C247.054 282.17 246.927 282.26 246.799 282.351C246.672 282.441 246.546 282.531 246.418 282.621L249.303 286.705ZM260.15 284.787C259.891 284.995 259.631 285.202 259.371 285.409L256.263 281.492L253.155 277.575C253.4 277.382 253.643 277.187 253.886 276.992L257.018 280.889L260.15 284.787ZM262.922 275.899L266.244 279.636C266.492 279.415 266.74 279.194 266.987 278.972L263.642 275.255L260.298 271.538C260.066 271.747 259.834 271.954 259.601 272.161L262.922 275.899ZM269.259 269.943L272.784 273.489C273.02 273.255 273.255 273.02 273.489 272.784L269.943 269.259L266.396 265.735C266.176 265.956 265.956 266.176 265.735 266.396L269.259 269.943ZM275.255 263.642L278.972 266.987C279.194 266.74 279.415 266.492 279.636 266.244L275.899 262.922L272.161 259.601C271.954 259.834 271.747 260.066 271.538 260.298L275.255 263.642ZM280.889 257.018L284.787 260.15C284.995 259.891 285.202 259.631 285.409 259.371L281.492 256.263L277.575 253.155C277.467 253.292 277.359 253.428 277.25 253.564C277.164 253.672 277.078 253.779 276.992 253.886L280.889 257.018ZM286.145 250.09L290.211 253C290.405 252.729 290.598 252.458 290.789 252.187L286.705 249.303L282.621 246.418C282.556 246.51 282.491 246.602 282.426 246.693C282.311 246.856 282.195 247.018 282.079 247.181L286.145 250.09ZM291.005 242.88L295.228 245.557C295.348 245.367 295.468 245.177 295.588 244.987C295.645 244.895 295.702 244.804 295.76 244.712L291.52 242.062L287.281 239.411C287.115 239.675 286.949 239.939 286.782 240.202L291.005 242.88ZM295.453 235.408L299.82 237.844C299.982 237.554 300.143 237.262 300.303 236.971L295.922 234.562L291.54 232.153C291.463 232.294 291.385 232.436 291.307 232.577C291.234 232.708 291.16 232.84 291.087 232.972L295.453 235.408ZM299.475 227.698L303.971 229.885C304.117 229.586 304.261 229.286 304.405 228.986L299.895 226.828L295.385 224.669C295.25 224.951 295.115 225.231 294.978 225.512L299.475 227.698ZM303.055 219.776L307.668 221.706C307.751 221.507 307.834 221.307 307.916 221.108C307.961 221.001 308.005 220.893 308.049 220.786L303.425 218.885L298.8 216.984C298.682 217.272 298.562 217.559 298.442 217.846L303.055 219.776ZM306.182 211.667L310.896 213.333C311.007 213.02 311.116 212.706 311.225 212.392L306.5 210.756L301.776 209.119C301.674 209.413 301.571 209.707 301.467 210L306.182 211.667ZM308.845 203.393L313.646 204.79C313.705 204.588 313.763 204.386 313.821 204.183C313.855 204.066 313.888 203.949 313.922 203.832L309.112 202.465L304.303 201.098C304.217 201.398 304.131 201.697 304.044 201.996L308.845 203.393ZM311.037 194.982L315.909 196.106C315.984 195.782 316.058 195.457 316.131 195.133L311.252 194.04L306.372 192.946C306.304 193.251 306.235 193.555 306.165 193.858L311.037 194.982ZM312.751 186.459L317.679 187.306C317.736 186.978 317.791 186.65 317.845 186.321L312.912 185.505L307.98 184.689C307.929 184.997 307.877 185.304 307.824 185.612L312.751 186.459ZM313.984 177.851L318.951 178.42C318.989 178.089 319.026 177.758 319.062 177.426L314.091 176.888L309.12 176.35L309.095 176.584C309.069 176.817 309.043 177.049 309.016 177.282L313.984 177.851ZM314.733 169.185L319.724 169.476C319.743 169.143 319.762 168.81 319.779 168.476L314.786 168.215L309.793 167.955C309.777 168.268 309.759 168.581 309.741 168.893L314.733 169.185Z" fill="#3F787B"/>
</svg>
