<svg width="203" height="203" viewBox="0 0 203 203" fill="none" xmlns="http://www.w3.org/2000/svg">
<mask id="path-1-inside-1_1_126" fill="white">
<path fill-rule="evenodd" clip-rule="evenodd" d="M100 0.0108582C81.8522 0.273752 64.8573 5.29944 50.2093 13.8939L100 100.134V0.0108582ZM102 0.00120544V98.4019L151.289 13.0302C136.715 4.81019 119.905 0.0875656 102 0.00120544ZM48.4941 14.9231L97.4019 99.634L13.3677 51.1168C21.8536 36.305 33.9659 23.8369 48.4941 14.9231ZM12.3906 52.862L96.634 101.5L0 101.5C0 83.8778 4.49088 67.3044 12.3906 52.862ZM0.019311 103.5H96.9019L13.3012 151.767C5.14614 137.489 0.358283 121.039 0.019311 103.5ZM14.3102 153.494L98.134 105.098L49.7786 188.852C35.2143 180.21 22.9965 168.029 14.3102 153.494ZM103.598 99.6339L153.022 14.0298C167.923 22.8257 180.38 35.3208 189.131 50.2516L103.598 99.6339ZM190.125 51.9869L104.366 101.5H203C203 83.5208 198.325 66.6334 190.125 51.9869ZM202.981 103.5H104.098L189.199 152.633C197.658 138.155 202.635 121.395 202.981 103.5ZM188.172 154.35C179.221 168.999 166.659 181.203 151.724 189.723L102.866 105.098L188.172 154.35ZM149.977 190.697L102 107.598V202.999C119.37 202.915 135.709 198.468 149.977 190.697ZM100 202.989V105.866L51.5086 189.856C65.8586 197.992 82.3862 202.734 100 202.989Z"/>
</mask>
<g filter="url(#filter0_ii_1_126)">
<path fill-rule="evenodd" clip-rule="evenodd" d="M100 0.0108582C81.8522 0.273752 64.8573 5.29944 50.2093 13.8939L100 100.134V0.0108582ZM102 0.00120544V98.4019L151.289 13.0302C136.715 4.81019 119.905 0.0875656 102 0.00120544ZM48.4941 14.9231L97.4019 99.634L13.3677 51.1168C21.8536 36.305 33.9659 23.8369 48.4941 14.9231ZM12.3906 52.862L96.634 101.5L0 101.5C0 83.8778 4.49088 67.3044 12.3906 52.862ZM0.019311 103.5H96.9019L13.3012 151.767C5.14614 137.489 0.358283 121.039 0.019311 103.5ZM14.3102 153.494L98.134 105.098L49.7786 188.852C35.2143 180.21 22.9965 168.029 14.3102 153.494ZM103.598 99.6339L153.022 14.0298C167.923 22.8257 180.38 35.3208 189.131 50.2516L103.598 99.6339ZM190.125 51.9869L104.366 101.5H203C203 83.5208 198.325 66.6334 190.125 51.9869ZM202.981 103.5H104.098L189.199 152.633C197.658 138.155 202.635 121.395 202.981 103.5ZM188.172 154.35C179.221 168.999 166.659 181.203 151.724 189.723L102.866 105.098L188.172 154.35ZM149.977 190.697L102 107.598V202.999C119.37 202.915 135.709 198.468 149.977 190.697ZM100 202.989V105.866L51.5086 189.856C65.8586 197.992 82.3862 202.734 100 202.989Z" fill="#09111E"/>
</g>
<path d="M50.2093 13.8939L49.7032 13.0314L48.8468 13.5339L49.3433 14.3939L50.2093 13.8939ZM100 0.0108582H101V-1.00373L99.9855 -0.989037L100 0.0108582ZM100 100.134L99.134 100.634L101 103.866V100.134H100ZM102 0.00120544L102.005 -0.998783L101 -1.00363V0.00120544H102ZM102 98.4019H101V102.134L102.866 98.9019L102 98.4019ZM151.289 13.0302L152.155 13.5302L152.66 12.6554L151.781 12.1592L151.289 13.0302ZM97.4019 99.634L96.9019 100.5L100.134 102.366L98.268 99.134L97.4019 99.634ZM48.4941 14.9231L49.3601 14.4231L48.8466 13.5336L47.9712 14.0708L48.4941 14.9231ZM13.3677 51.1168L12.5 50.6197L12.0046 51.4845L12.8677 51.9828L13.3677 51.1168ZM96.634 101.5V102.5H100.366L97.134 100.634L96.634 101.5ZM12.3906 52.862L12.8906 51.996L12.0044 51.4844L11.5133 52.3822L12.3906 52.862ZM0 101.5H-1V102.5H1.57903e-07L0 101.5ZM96.9019 103.5L97.4019 104.366L100.634 102.5H96.9019V103.5ZM0.019311 103.5V102.5H-1.0002L-0.980502 103.519L0.019311 103.5ZM13.3012 151.767L12.4328 152.263L12.9311 153.135L13.8012 152.633L13.3012 151.767ZM98.134 105.098L99 105.598L100.866 102.366L97.634 104.232L98.134 105.098ZM14.3102 153.494L13.8102 152.628L12.931 153.135L13.4518 154.007L14.3102 153.494ZM49.7786 188.852L49.2683 189.712L50.1386 190.228L50.6446 189.352L49.7786 188.852ZM153.022 14.0298L153.53 13.1687L152.66 12.6554L152.156 13.5298L153.022 14.0298ZM103.598 99.6339L102.732 99.1339L100.866 102.366L104.098 100.5L103.598 99.6339ZM189.131 50.2516L189.631 51.1176L190.503 50.6143L189.994 49.7459L189.131 50.2516ZM190.125 51.9869L190.998 51.4984L190.503 50.6143L189.625 51.1209L190.125 51.9869ZM104.366 101.5L103.866 100.634L100.634 102.5H104.366V101.5ZM203 101.5V102.5H204V101.5H203ZM202.981 103.5L203.98 103.519L204 102.5H202.981V103.5ZM104.098 103.5V102.5H100.366L103.598 104.366L104.098 103.5ZM189.199 152.633L188.699 153.499L189.56 153.996L190.062 153.137L189.199 152.633ZM188.172 154.35L189.026 154.871L189.56 153.996L188.672 153.484L188.172 154.35ZM151.724 189.723L150.858 190.223L151.356 191.085L152.22 190.592L151.724 189.723ZM102.866 105.098L103.366 104.232L100.134 102.366L102 105.598L102.866 105.098ZM149.977 190.697L150.456 191.575L151.356 191.085L150.843 190.197L149.977 190.697ZM102 107.598L102.866 107.098L101 103.866V107.598H102ZM102 202.999H101V204.004L102.005 203.999L102 202.999ZM100 202.989L99.9855 203.989L101 204.004V202.989H100ZM100 105.866H101V102.134L99.134 105.366L100 105.866ZM51.5086 189.856L50.6426 189.356L50.1387 190.228L51.0154 190.725L51.5086 189.856ZM50.7154 14.7564C65.2181 6.24713 82.0442 1.27107 100.014 1.01075L99.9855 -0.989037C81.6601 -0.72357 64.4964 4.35175 49.7032 13.0314L50.7154 14.7564ZM49.3433 14.3939L99.134 100.634L100.866 99.6339L51.0753 13.3939L49.3433 14.3939ZM101 100.134V0.0108582H99V100.134H101ZM101 0.00120544V98.4019H103V0.00120544H101ZM102.866 98.9019L152.155 13.5302L150.423 12.5302L101.134 97.9019L102.866 98.9019ZM101.995 1.00119C119.726 1.08671 136.368 5.76278 150.798 13.9012L151.781 12.1592C137.061 3.85759 120.085 -0.911579 102.005 -0.998783L101.995 1.00119ZM98.268 99.134L49.3601 14.4231L47.6281 15.4231L96.5359 100.134L98.268 99.134ZM12.8677 51.9828L96.9019 100.5L97.9019 98.7679L13.8677 50.2508L12.8677 51.9828ZM14.2354 51.6139C22.6378 36.9477 34.6315 24.6017 49.0171 15.7755L47.9712 14.0708C33.3003 23.072 21.0694 35.6622 12.5 50.6197L14.2354 51.6139ZM97.134 100.634L12.8906 51.996L11.8906 53.7281L96.134 102.366L97.134 100.634ZM1.57903e-07 102.5L96.634 102.5V100.5L-1.57903e-07 100.5L1.57903e-07 102.5ZM1 101.5C1 84.0497 5.44667 67.6409 13.2679 53.3419L11.5133 52.3822C3.53509 66.968 -1 83.7059 -1 101.5H1ZM96.9019 102.5H0.019311V104.5H96.9019V102.5ZM13.8012 152.633L97.4019 104.366L96.4019 102.634L12.8012 150.901L13.8012 152.633ZM14.1695 151.271C6.09535 137.134 1.35478 120.848 1.01912 103.481L-0.980502 103.519C-0.638212 121.23 4.19692 137.843 12.4328 152.263L14.1695 151.271ZM97.634 104.232L13.8102 152.628L14.8102 154.36L98.634 105.964L97.634 104.232ZM50.6446 189.352L99 105.598L97.268 104.598L48.9126 188.352L50.6446 189.352ZM50.2889 187.992C35.8677 179.435 23.7696 167.373 15.1686 152.981L13.4518 154.007C22.2235 168.685 34.5609 180.985 49.2683 189.712L50.2889 187.992ZM152.156 13.5298L102.732 99.1339L104.464 100.134L153.888 14.5298L152.156 13.5298ZM152.513 14.891C167.268 23.6005 179.603 35.9732 188.268 50.7572L189.994 49.7459C181.157 34.6684 168.577 22.051 153.53 13.1687L152.513 14.891ZM104.098 100.5L189.631 51.1176L188.631 49.3855L103.098 98.7679L104.098 100.5ZM189.625 51.1209L103.866 100.634L104.866 102.366L190.625 52.853L189.625 51.1209ZM104.366 102.5H203V100.5H104.366V102.5ZM189.253 52.4755C197.371 66.9765 202 83.6962 202 101.5H204C204 83.3453 199.279 66.2903 190.998 51.4984L189.253 52.4755ZM202.981 102.5H104.098V104.5H202.981V102.5ZM103.598 104.366L188.699 153.499L189.699 151.767L104.598 102.634L103.598 104.366ZM201.981 103.481C201.638 121.2 196.711 137.794 188.335 152.128L190.062 153.137C198.605 138.516 203.631 121.589 203.98 103.519L201.981 103.481ZM187.319 153.828C178.455 168.334 166.017 180.418 151.229 188.855L152.22 190.592C167.301 181.987 179.986 169.665 189.026 154.871L187.319 153.828ZM102 105.598L150.858 190.223L152.59 189.223L103.732 104.598L102 105.598ZM188.672 153.484L103.366 104.232L102.366 105.964L187.672 155.216L188.672 153.484ZM150.843 190.197L102.866 107.098L101.134 108.098L149.111 191.197L150.843 190.197ZM101 107.598V202.999H103V107.598H101ZM149.499 189.819C135.373 197.512 119.196 201.916 101.995 201.999L102.005 203.999C119.545 203.914 136.046 199.423 150.456 191.575L149.499 189.819ZM101 202.989V105.866H99V202.989H101ZM99.134 105.366L50.6426 189.356L52.3746 190.356L100.866 106.366L99.134 105.366ZM100.014 201.989C82.573 201.737 66.2095 197.042 52.0018 188.986L51.0154 190.725C65.5077 198.943 82.1995 203.731 99.9855 203.989L100.014 201.989Z" fill="#A6FFFA" fill-opacity="0.09" mask="url(#path-1-inside-1_1_126)"/>
<defs>
<filter id="filter0_ii_1_126" x="0" y="-9.99879" width="203" height="222.998" filterUnits="userSpaceOnUse" color-interpolation-filters="sRGB">
<feFlood flood-opacity="0" result="BackgroundImageFix"/>
<feBlend mode="normal" in="SourceGraphic" in2="BackgroundImageFix" result="shape"/>
<feColorMatrix in="SourceAlpha" type="matrix" values="0 0 0 0 0 0 0 0 0 0 0 0 0 0 0 0 0 0 127 0" result="hardAlpha"/>
<feOffset dy="10"/>
<feGaussianBlur stdDeviation="10"/>
<feComposite in2="hardAlpha" operator="arithmetic" k2="-1" k3="1"/>
<feColorMatrix type="matrix" values="0 0 0 0 0.625 0 0 0 0 0.99537 0 0 0 0 1 0 0 0 1 0"/>
<feBlend mode="normal" in2="shape" result="effect1_innerShadow_1_126"/>
<feColorMatrix in="SourceAlpha" type="matrix" values="0 0 0 0 0 0 0 0 0 0 0 0 0 0 0 0 0 0 127 0" result="hardAlpha"/>
<feOffset dy="-10"/>
<feGaussianBlur stdDeviation="10"/>
<feComposite in2="hardAlpha" operator="arithmetic" k2="-1" k3="1"/>
<feColorMatrix type="matrix" values="0 0 0 0 0.623529 0 0 0 0 1 0 0 0 0 0.819294 0 0 0 1 0"/>
<feBlend mode="normal" in2="effect1_innerShadow_1_126" result="effect2_innerShadow_1_126"/>
</filter>
</defs>
</svg>
